<svg width="1552" height="753" viewBox="0 0 1552 753" fill="none" xmlns="http://www.w3.org/2000/svg">
<path d="M1 489.414C8.4394 490.471 25.55 495.333 34.4773 506.326C45.6364 520.066 76.8819 582.428 99.2001 659.587C117.055 721.314 151.276 745.907 166.155 750.487C179.918 754.362 212.353 738.014 231.994 641.618L258.775 447.135C263.611 394.639 287.789 287.743 345.816 280.133C403.844 272.523 451.3 359.314 469.683 392.172C492.745 433.394 542.553 513.058 547.796 517.952C554.492 524.202 585.737 594.055 641.533 596.169C697.328 598.282 792.757 396.837 794.413 392.172C796.068 387.508 890.939 264.187 943.387 254.674C995.834 245.161 1051.07 270.62 1093.48 303.387C1135.88 336.153 1149.83 346.723 1161.55 346.723C1172.54 346.723 1207.3 343.552 1227.39 280.133C1243.46 229.398 1258.63 161.752 1264.21 134.271C1275 88.4685 1309.74 -2.29035 1362.41 1.09196C1415.08 4.47428 1433.74 51.7348 1440.52 70.8523C1454.29 109.608 1474.12 197.589 1484.05 233.626C1494.65 272.114 1528.68 371.033 1551 367.862" stroke="#171717" stroke-width="2"/>
</svg>
